# File created by Blade
# Date/Time:  Fri Jan 16 19:49:56 2015
# Frame Rate: 120.000 fps
#------------------------------------------------------
:FULLY-SPECIFIED
:DEGREES
624
root 20.246641 34.999192 -11.802917 -113.446837 0.054002 -177.968502
Spine 69.820863 2.102175 -7.297569
Head -17.196237 3.837685 -0.892357
LeftShoulder -21.935412 19.711499 11.703798
LeftArm -58.619755 9.143978 -96.401835
LeftForeArm 22.870798 0.000000 -0.916786
LeftHand -2.435399 -0.000000 -41.282442
LeftHandThumb1 -26.253704 0.000000 33.147579
RightShoulder -27.139374 -50.748578 -3.395888
RightArm -21.140962 -20.695411 82.658686
RightForeArm -37.789996 -0.000000 6.592269
RightHand 3.740357 -0.000000 47.922092
RightHandThumb1 -24.326973 -0.000000 -32.862282
LeftUpLeg -71.624920 6.257759 4.562415
LeftLeg -8.470536 -0.000000 0.000000
LeftFoot -3.917151 32.108919 -8.155669
LeftToeBase 26.923462 -0.000000 -0.000000
RightUpLeg -71.057730 -1.396463 -6.379920
RightLeg -7.823913 -0.000000 0.000000
RightFoot -4.656104 -21.027862 14.057089
RightToeBase 26.888751 -0.000000 -0.000000
625
root 20.255905 34.997800 -11.805937 -113.984372 0.038828 -177.940136
Spine 69.644266 2.156704 -7.257735
Head -17.187018 3.767390 -0.931585
LeftShoulder -21.917979 19.557394 11.706217
LeftArm -58.582085 9.095483 -96.342060
LeftForeArm 23.027256 0.000000 -0.866606
LeftHand -2.403773 -0.000000 -41.395903
LeftHandThumb1 -26.253704 0.000000 33.147579
RightShoulder -27.141398 -50.661836 -3.388245
RightArm -21.090986 -20.680385 82.723141
RightForeArm -37.703592 -0.000000 6.612791
RightHand 3.712975 -0.000000 47.876130
RightHandThumb1 -24.326973 -0.000000 -32.862282
LeftUpLeg -71.029515 6.256208 4.618360
LeftLeg -8.585067 -0.000000 0.000000
LeftFoot -3.866945 32.122380 -8.159512
LeftToeBase 26.937941 -0.000000 -0.000000
RightUpLeg -70.485794 -1.268133 -6.498837
RightLeg -7.883026 -0.000000 0.000000
RightFoot -4.668429 -21.143949 14.083208
RightToeBase 26.944422 -0.000000 -0.000000
626
root 20.262957 34.996641 -11.808968 -114.516318 0.029078 -177.922129
Spine 69.438865 2.168615 -7.277780
Head -17.177097 3.832950 -1.010315
LeftShoulder -21.966928 19.459915 11.651388
LeftArm -58.464259 9.035365 -96.257988
LeftForeArm 23.094911 -0.000000 -0.854113
LeftHand -2.407439 -0.000000 -41.398779
LeftHandThumb1 -26.253704 0.000000 33.147579
RightShoulder -27.103666 -50.543473 -3.403206
RightArm -21.034410 -20.578660 82.716600
RightForeArm -37.647472 -0.000000 6.626772
RightHand 3.716227 -0.000000 47.830826
RightHandThumb1 -24.326973 -0.000000 -32.862282
LeftUpLeg -70.418855 6.234272 4.686984
LeftLeg -8.734917 -0.000000 0.000000
LeftFoot -3.792437 32.163406 -8.172211
LeftToeBase 26.897393 -0.000000 -0.000000
RightUpLeg -69.931871 -1.170723 -6.567778
RightLeg -7.921680 -0.000000 0.000000
RightFoot -4.632898 -21.146934 14.049494
RightToeBase 26.863150 -0.000000 -0.000000
627
root 20.268458 34.996505 -11.812412 -115.054480 0.064656 -177.928447
Spine 69.212340 2.217069 -7.292421
Head -17.154639 3.790110 -1.028783
LeftShoulder -21.937241 19.259474 11.684045
LeftArm -58.449143 8.947313 -96.139992
LeftForeArm 23.214793 -0.000000 -0.781401
LeftHand -2.454349 -0.000000 -41.422640
LeftHandThumb1 -26.253704 0.000000 33.147579
RightShoulder -27.086524 -50.315938 -3.476902
RightArm -21.091285 -20.518755 82.808718
RightForeArm -37.680634 -0.000000 6.622476
RightHand 3.688268 -0.000000 47.793781
RightHandThumb1 -24.326973 -0.000000 -32.862282
LeftUpLeg -69.777026 6.210647 4.678333
LeftLeg -8.927182 -0.000000 0.000000
LeftFoot -3.696086 32.197028 -8.216140
LeftToeBase 26.864411 -0.000000 -0.000000
RightUpLeg -69.414107 -1.063133 -6.710071
RightLeg -7.881594 -0.000000 0.000000
RightFoot -4.698506 -21.232010 14.042952
RightToeBase 26.933401 -0.000000 -0.000000
628
root 20.270768 34.997971 -11.819327 -115.595405 0.113257 -177.929926
Spine 68.980834 2.247840 -7.338879
Head -17.150573 3.783211 -1.084996
LeftShoulder -21.962045 19.072690 11.639210
LeftArm -58.349839 8.930691 -96.088810
LeftForeArm 23.161053 -0.000000 -0.826484
LeftHand -2.511736 -0.000000 -41.410740
LeftHandThumb1 -26.253704 0.000000 33.147579
RightShoulder -27.059000 -50.151215 -3.511182
RightArm -21.049107 -20.486359 82.898578
RightForeArm -37.515440 -0.000000 6.573121
RightHand 3.646014 -0.000000 47.692691
RightHandThumb1 -24.326973 -0.000000 -32.862282
LeftUpLeg -69.144781 6.215285 4.594146
LeftLeg -9.096970 -0.000000 0.000000
LeftFoot -3.600258 32.158916 -8.234819
LeftToeBase 26.838397 -0.000000 -0.000000
RightUpLeg -68.846701 -0.929040 -6.938728
RightLeg -7.925157 -0.000000 0.000000
RightFoot -4.699831 -21.362744 14.100394
RightToeBase 26.820207 -0.000000 -0.000000
629
root 20.271592 34.999033 -11.828162 -116.168166 0.137835 -177.914120
Spine 68.732492 2.224269 -7.482940
Head -17.058220 3.987368 -1.104611
LeftShoulder -22.077868 18.886627 11.593642
LeftArm -58.304002 8.841021 -96.056778
LeftForeArm 23.216776 -0.000000 -0.852841
LeftHand -2.525932 0.000000 -41.387191
LeftHandThumb1 -26.253704 0.000000 33.147579
RightShoulder -26.770963 -50.053296 -3.672393
RightArm -20.991011 -20.324908 82.940571
RightForeArm -37.487159 -0.000000 6.629489
RightHand 3.666328 -0.000000 47.654415
RightHandThumb1 -24.326973 -0.000000 -32.862282
LeftUpLeg -68.486762 6.228963 4.522792
LeftLeg -9.255403 -0.000000 0.000000
LeftFoot -3.513222 32.094748 -8.239476
LeftToeBase 26.781173 -0.000000 -0.000000
RightUpLeg -68.242069 -0.788965 -7.106296
RightLeg -7.974336 -0.000000 0.000000
RightFoot -4.708126 -21.479105 14.123887
RightToeBase 26.877279 -0.000000 -0.000000
630
root 20.270980 34.998851 -11.834988 -116.755237 0.204340 -177.908388
Spine 68.481118 2.275908 -7.501837
Head -16.994383 3.958022 -1.104560
LeftShoulder -22.062159 18.684339 11.616152
LeftArm -58.242100 8.852683 -96.079870
LeftForeArm 23.217186 0.000000 -0.848319
LeftHand -2.592893 -0.000000 -41.389901
LeftHandThumb1 -26.253704 0.000000 33.147579
RightShoulder -26.728518 -49.862242 -3.716074
RightArm -21.019503 -20.228900 83.059621
RightForeArm -37.443615 -0.000000 6.629092
RightHand 3.597360 -0.000000 47.572039
RightHandThumb1 -24.326973 -0.000000 -32.862282
LeftUpLeg -67.831691 6.266043 4.380730
LeftLeg -9.382387 -0.000000 0.000000
LeftFoot -3.517216 31.980191 -8.333575
LeftToeBase 26.835978 -0.000000 -0.000000
RightUpLeg -67.649797 -0.647528 -7.285759
RightLeg -7.991871 -0.000000 0.000000
RightFoot -4.707698 -21.567219 14.121909
RightToeBase 26.836943 -0.000000 -0.000000
631
root 20.268953 34.999120 -11.844066 -117.339670 0.294180 -177.898496
Spine 68.196714 2.332235 -7.516720
Head -16.901131 3.950652 -1.212224
LeftShoulder -22.010297 18.507867 11.562930
LeftArm -58.140999 8.819810 -95.989130
LeftForeArm 23.204745 -0.000000 -0.835907
LeftHand -2.522282 -0.000000 -41.440582
LeftHandThumb1 -26.253704 0.000000 33.147579
RightShoulder -26.776009 -49.766735 -3.703318
RightArm -20.901579 -20.022993 83.113343
RightForeArm -37.551902 -0.000000 6.601665
RightHand 3.616369 -0.000000 47.529365
RightHandThumb1 -24.326973 -0.000000 -32.862282
LeftUpLeg -67.149020 6.316336 4.225261
LeftLeg -9.552725 -0.000000 0.000000
LeftFoot -3.420331 31.871685 -8.295978
LeftToeBase 26.833684 -0.000000 -0.000000
RightUpLeg -67.076131 -0.492219 -7.467940
RightLeg -7.981468 -0.000000 0.000000
RightFoot -4.729728 -21.642251 14.113333
RightToeBase 26.882451 -0.000000 -0.000000
632
root 20.268307 34.999933 -11.851987 -117.891762 0.366880 -177.877742
Spine 67.839091 2.519315 -7.198866
Head -16.703726 3.625595 -1.221124
LeftShoulder -21.573397 18.279522 11.676967
LeftArm -58.051573 8.790589 -96.007076
LeftForeArm 23.130327 -0.000000 -0.843671
LeftHand -2.485300 -0.000000 -41.447484
LeftHandThumb1 -26.253704 0.000000 33.147579
RightShoulder -27.382001 -49.856414 -3.155539
RightArm -20.658518 -19.879572 83.153655
RightForeArm -37.523736 0.000000 6.621167
RightHand 3.601612 -0.000000 47.487427
RightHandThumb1 -24.326973 -0.000000 -32.862282
LeftUpLeg -66.506823 6.365847 4.117578
LeftLeg -9.707552 -0.000000 0.000000
LeftFoot -3.350510 31.808393 -8.294077
LeftToeBase 26.813769 -0.000000 -0.000000
RightUpLeg -66.530300 -0.336388 -7.613604
RightLeg -7.979410 -0.000000 0.000000
RightFoot -4.732393 -21.719468 14.125658
RightToeBase 26.824945 -0.000000 -0.000000
633
root 20.267611 35.000970 -11.862046 -118.485692 0.432386 -177.858918
Spine 67.554765 2.562601 -7.207144
Head -16.722440 3.638624 -1.239186
LeftShoulder -21.592957 18.024536 11.679889
LeftArm -57.991020 8.879284 -96.114865
LeftForeArm 22.968652 -0.000000 -0.864221
LeftHand -2.616286 -0.000000 -41.412408
LeftHandThumb1 -26.253704 0.000000 33.147579
RightShoulder -27.411414 -49.682122 -3.076394
RightArm -20.622416 -19.792978 83.206608
RightForeArm -37.399430 0.000000 6.659806
RightHand 3.570008 -0.000000 47.378882
RightHandThumb1 -24.326973 -0.000000 -32.862282
LeftUpLeg -65.836605 6.419760 3.996171
LeftLeg -9.840174 -0.000000 0.000000
LeftFoot -3.297061 31.721659 -8.284929
LeftToeBase 26.890495 -0.000000 -0.000000
RightUpLeg -65.938716 -0.196060 -7.701490
RightLeg -7.981001 -0.000000 0.000000
RightFoot -4.731379 -21.752025 14.119969
RightToeBase 26.859305 -0.000000 -0.000000
634
root 20.261723 35.002978 -11.870485 -119.048085 0.528884 -177.844711
Spine 67.204256 2.573858 -7.262553
Head -16.701673 3.698384 -1.346170
LeftShoulder -21.608355 17.692929 11.624219
LeftArm -58.042935 8.833987 -96.015735
LeftForeArm 23.096097 -0.000000 -0.791914
LeftHand -2.532465 0.000000 -41.475570
LeftHandThumb1 -26.253704 0.000000 33.147579
RightShoulder -27.478350 -49.615794 -2.951106
RightArm -20.433976 -19.716105 83.226096
RightForeArm -37.396285 0.000000 6.667469
RightHand 3.546714 -0.000000 47.326035
RightHandThumb1 -24.326973 -0.000000 -32.862282
LeftUpLeg -65.213169 6.479815 3.828295
LeftLeg -9.946026 -0.000000 0.000000
LeftFoot -3.242265 31.644598 -8.262752
LeftToeBase 26.896783 -0.000000 -0.000000
RightUpLeg -65.395754 -0.076019 -7.765676
RightLeg -7.968402 -0.000000 0.000000
RightFoot -4.700702 -21.736629 14.240910
RightToeBase 26.642196 -0.000000 -0.000000
635
root 20.255139 35.005472 -11.881134 -119.619464 0.613371 -177.830845
Spine 66.836683 2.583966 -7.305455
Head -16.673499 3.775812 -1.379161
LeftShoulder -21.633167 17.506512 11.631460
LeftArm -57.909714 8.823708 -96.030516
LeftForeArm 23.081412 -0.000000 -0.799502
LeftHand -2.567299 0.000000 -41.460181
LeftHandThumb1 -26.253704 0.000000 33.147579
RightShoulder -27.433848 -49.440344 -2.952585
RightArm -20.371863 -19.646865 83.309548
RightForeArm -37.207132 0.000000 6.649367
RightHand 3.488773 -0.000000 47.207281
RightHandThumb1 -24.326973 -0.000000 -32.862282
LeftUpLeg -64.583315 6.533239 3.677658
LeftLeg -10.043022 -0.000000 0.000000
LeftFoot -3.132927 31.584542 -8.122612
LeftToeBase 26.865957 -0.000000 -0.000000
RightUpLeg -64.835403 0.019913 -7.759791
RightLeg -7.956572 -0.000000 0.000000
RightFoot -4.680391 -21.682833 14.264081
RightToeBase 26.615037 -0.000000 -0.000000
